<svg width="446" height="309" viewBox="0 0 446 309" fill="none" xmlns="http://www.w3.org/2000/svg">
<path d="M412.481 308.107H33.5191C24.7783 308.087 16.4023 304.6 10.2286 298.413C4.05496 292.225 0.587849 283.841 0.587891 275.1V241.078H445.412V275.1C445.412 283.841 441.945 292.225 435.772 298.413C429.598 304.601 421.222 308.087 412.481 308.107Z" fill="#CCCCCC"/>
<path d="M445.92 269.007H0.0800781V33.8998C0.0900034 25.149 3.57063 16.7595 9.75838 10.5717C15.9461 4.38399 24.3357 0.903358 33.0864 0.893433H412.914C421.664 0.903337 430.054 4.38397 436.242 10.5717C442.43 16.7595 445.91 25.149 445.92 33.8998V269.007Z" fill="#E6E6E6"/>
<path d="M410.375 250.218H35.6255C31.1828 250.213 26.9235 248.446 23.782 245.305C20.6405 242.163 18.8734 237.904 18.8684 233.461V36.4387C18.8734 31.996 20.6405 27.7367 23.782 24.5952C26.9235 21.4537 31.1828 19.6866 35.6255 19.6816H410.375C414.818 19.6867 419.077 21.4537 422.218 24.5952C425.36 27.7367 427.127 31.996 427.132 36.4387V233.461C427.127 237.904 425.36 242.163 422.218 245.305C419.077 248.446 414.818 250.213 410.375 250.218Z" fill="white"/>
<path d="M245.657 120.262C245.657 120.294 245.658 120.326 245.66 120.358C246.694 136.633 253.889 151.903 265.78 163.063C277.672 174.222 293.367 180.434 309.675 180.434C325.983 180.434 341.679 174.222 353.57 163.063C365.462 151.903 372.656 136.633 373.69 120.358C373.704 120.157 373.676 119.955 373.608 119.765C373.539 119.575 373.433 119.401 373.294 119.255C373.158 119.109 372.993 118.992 372.81 118.913C372.626 118.833 372.429 118.793 372.229 118.794L247.122 118.794C246.733 118.795 246.36 118.95 246.086 119.225C245.811 119.5 245.657 119.874 245.657 120.262Z" fill="#3F3D56"/>
<path d="M352.425 68.7563C352.424 69.2558 352.226 69.7347 351.873 70.0883L308.316 113.646C308.142 113.821 307.935 113.96 307.706 114.054C307.478 114.149 307.233 114.197 306.986 114.197H247.122C246.865 114.198 246.611 114.146 246.375 114.043C246.139 113.941 245.927 113.792 245.752 113.604C245.575 113.415 245.438 113.192 245.351 112.949C245.263 112.705 245.226 112.447 245.243 112.188C246.005 100.205 250.093 88.6712 257.049 78.8835C264.005 69.0957 273.553 61.4418 284.619 56.7815C295.686 52.1213 307.833 50.6395 319.695 52.5027C331.557 54.3659 342.665 59.5002 351.77 67.3287C351.966 67.4981 352.125 67.706 352.238 67.9396C352.35 68.1732 352.413 68.4274 352.423 68.6864C352.424 68.7098 352.425 68.7331 352.425 68.7563Z" fill="#E6E6E6"/>
<path d="M287.354 206.101C287.331 208.38 286.633 210.6 285.347 212.482C284.062 214.363 282.248 215.821 280.133 216.672C278.019 217.522 275.701 217.726 273.471 217.259C271.24 216.792 269.199 215.673 267.604 214.046C266.01 212.418 264.933 210.354 264.512 208.115C264.09 205.875 264.342 203.561 265.236 201.465C266.129 199.369 267.624 197.585 269.532 196.338C271.439 195.092 273.674 194.439 275.952 194.463C279.007 194.497 281.922 195.742 284.06 197.924C286.197 200.106 287.382 203.047 287.354 206.101Z" fill="#FF7A00"/>
<path d="M320.27 206.439C320.247 208.717 319.548 210.938 318.263 212.819C316.977 214.701 315.163 216.159 313.049 217.009C310.935 217.86 308.616 218.064 306.386 217.597C304.156 217.129 302.114 216.011 300.52 214.383C298.925 212.756 297.849 210.692 297.427 208.452C297.006 206.213 297.258 203.899 298.151 201.803C299.045 199.707 300.54 197.923 302.447 196.676C304.355 195.43 306.589 194.777 308.868 194.8C311.922 194.835 314.838 196.08 316.975 198.262C319.113 200.444 320.298 203.384 320.27 206.439Z" fill="#3F3D56"/>
<path d="M353.185 206.776C353.162 209.055 352.463 211.275 351.178 213.157C349.893 215.039 348.078 216.497 345.964 217.347C343.85 218.197 341.532 218.402 339.301 217.934C337.071 217.467 335.03 216.349 333.435 214.721C331.84 213.093 330.764 211.029 330.343 208.79C329.921 206.551 330.173 204.237 331.067 202.14C331.96 200.044 333.455 198.26 335.363 197.014C337.27 195.767 339.504 195.115 341.783 195.138C344.837 195.173 347.753 196.418 349.891 198.6C352.028 200.781 353.213 203.722 353.185 206.776Z" fill="#E6E6E6"/>
<path d="M186.399 82.3069L80.6967 81.2225C79.6667 81.2111 78.6446 81.4028 77.6887 81.7867C76.7328 82.1705 75.862 82.739 75.1259 83.4595C74.3898 84.1801 73.8029 85.0386 73.3988 85.9861C72.9947 86.9336 72.7812 87.9514 72.7707 88.9814C72.7601 90.0114 72.9526 91.0334 73.3372 91.989C73.7218 92.9445 74.2909 93.8149 75.0121 94.5504C75.7332 95.2859 76.5922 95.8721 77.54 96.2755C78.4878 96.6789 79.5058 96.8915 80.5358 96.9013L186.238 97.9857C187.268 97.9971 188.291 97.8054 189.246 97.4215C190.202 97.0377 191.073 96.4692 191.809 95.7487C192.545 95.0281 193.132 94.1696 193.536 93.2221C193.94 92.2746 194.154 91.2568 194.164 90.2268C194.175 89.1968 193.983 88.1748 193.598 87.2192C193.213 86.2637 192.644 85.3933 191.923 84.6578C191.202 83.9223 190.343 83.3361 189.395 82.9327C188.447 82.5293 187.429 82.3167 186.399 82.3069Z" fill="#E6E6E6"/>
<path d="M185.96 125.145L80.2571 124.061C78.4628 124.039 76.7155 124.634 75.3072 125.746C73.8989 126.858 72.915 128.42 72.52 130.17C72.1251 131.921 72.343 133.754 73.1373 135.363C73.9316 136.972 75.2542 138.259 76.884 139.01C77.8899 139.481 78.9855 139.73 80.0963 139.74L185.799 140.824C186.829 140.836 187.852 140.645 188.808 140.261C189.765 139.878 190.636 139.309 191.373 138.589C192.109 137.868 192.697 137.009 193.101 136.062C193.505 135.114 193.719 134.096 193.729 133.065C193.74 132.035 193.547 131.013 193.163 130.057C192.778 129.101 192.208 128.23 191.486 127.495C190.765 126.759 189.905 126.173 188.957 125.77C188.009 125.367 186.99 125.155 185.96 125.145Z" fill="#E6E6E6"/>
<path d="M185.52 167.984L79.8175 166.9C78.7875 166.888 77.7654 167.08 76.8095 167.464C75.8537 167.848 74.9828 168.416 74.2467 169.137C73.5106 169.857 72.9238 170.716 72.5197 171.663C72.1155 172.611 71.9021 173.628 71.8915 174.658C71.881 175.688 72.0735 176.71 72.4581 177.666C72.8427 178.622 73.4118 179.492 74.1329 180.227C74.8541 180.963 75.7131 181.549 76.6609 181.953C77.6087 182.356 78.6267 182.569 79.6567 182.578L185.359 183.663C186.39 183.675 187.412 183.483 188.369 183.1C189.325 182.716 190.197 182.148 190.933 181.427C191.67 180.707 192.257 179.848 192.661 178.9C193.066 177.952 193.279 176.934 193.29 175.904C193.3 174.873 193.108 173.851 192.723 172.895C192.338 171.939 191.769 171.069 191.047 170.333C190.325 169.598 189.466 169.011 188.517 168.608C187.569 168.205 186.551 167.993 185.52 167.984Z" fill="#E6E6E6"/>
<path d="M156.319 81.9983L80.6967 81.2225C79.6667 81.2111 78.6446 81.4028 77.6887 81.7867C76.7328 82.1705 75.862 82.739 75.1259 83.4595C74.3898 84.1801 73.8029 85.0386 73.3988 85.9861C72.9947 86.9336 72.7812 87.9514 72.7707 88.9814C72.7601 90.0114 72.9526 91.0334 73.3372 91.989C73.7218 92.9445 74.2909 93.8149 75.0121 94.5504C75.7332 95.2859 76.5922 95.8721 77.54 96.2755C78.4878 96.6789 79.5058 96.8915 80.5358 96.9013L154.582 97.6609C156.087 97.0625 157.4 96.0661 158.382 94.7784C159.363 93.4908 159.976 91.9604 160.154 90.3511C160.333 88.7419 160.07 87.1144 159.394 85.6431C158.719 84.1717 157.656 82.9118 156.319 81.9983Z" fill="#FF7A00"/>
<path d="M120.955 124.479L80.2571 124.061C78.4628 124.039 76.7155 124.634 75.3072 125.746C73.8989 126.858 72.915 128.42 72.52 130.17C72.1251 131.921 72.343 133.754 73.1373 135.363C73.9316 136.972 75.2542 138.259 76.884 139.01L114.264 139.393C116.632 139.417 118.911 138.499 120.602 136.843C122.293 135.186 123.257 132.926 123.282 130.559C123.318 128.308 122.484 126.13 120.955 124.479Z" fill="#FF7A00"/>
<path d="M177.622 167.903L79.8175 166.9C78.7875 166.888 77.7654 167.08 76.8095 167.464C75.8537 167.848 74.9828 168.416 74.2467 169.137C73.5106 169.857 72.9238 170.716 72.5197 171.663C72.1155 172.611 71.9021 173.628 71.8915 174.658C71.881 175.688 72.0735 176.71 72.4581 177.666C72.8427 178.622 73.4118 179.492 74.1329 180.227C74.8541 180.963 75.7131 181.549 76.6609 181.953C77.6087 182.356 78.6267 182.569 79.6567 182.578L178.092 183.588C179.486 182.784 180.637 181.618 181.422 180.212C182.206 178.806 182.595 177.214 182.547 175.605C182.499 173.996 182.016 172.43 181.148 171.074C180.281 169.718 179.063 168.622 177.622 167.903Z" fill="#FF7A00"/>
</svg>
