<svg width="90" height="23" viewBox="0 0 90 23" fill="none" xmlns="http://www.w3.org/2000/svg">
<path d="M0.517045 18V0.545454H7.40341C8.72159 0.545454 9.84659 0.78125 10.7784 1.25284C11.7159 1.71875 12.429 2.38068 12.9176 3.23864C13.4119 4.09091 13.6591 5.09375 13.6591 6.24716C13.6591 7.40625 13.4091 8.40341 12.9091 9.23864C12.4091 10.0682 11.6847 10.7045 10.7358 11.1477C9.79261 11.5909 8.65057 11.8125 7.30966 11.8125H2.69886V8.84659H6.71307C7.41761 8.84659 8.00284 8.75 8.46875 8.55682C8.93466 8.36364 9.28125 8.07386 9.50852 7.6875C9.74148 7.30114 9.85795 6.82102 9.85795 6.24716C9.85795 5.66761 9.74148 5.17898 9.50852 4.78125C9.28125 4.38352 8.93182 4.08239 8.46023 3.87784C7.99432 3.66761 7.40625 3.5625 6.69602 3.5625H4.20739V18H0.517045ZM9.94318 10.0568L14.2812 18H10.2074L5.96307 10.0568H9.94318ZM20.4432 18.3068C19.6136 18.3068 18.8608 18.1506 18.1847 17.8381C17.5085 17.5199 16.9716 17.0625 16.5739 16.4659C16.1761 15.8636 15.9773 15.1364 15.9773 14.2841C15.9773 13.5341 16.125 12.9261 16.4205 12.4602C16.7159 11.9886 17.1108 11.6193 17.6051 11.3523C18.0994 11.0852 18.6449 10.8864 19.2415 10.7557C19.8438 10.6193 20.4489 10.5114 21.0568 10.4318C21.8523 10.3295 22.4972 10.2528 22.9915 10.2017C23.4915 10.1449 23.8551 10.0511 24.0824 9.92045C24.3153 9.78977 24.4318 9.5625 24.4318 9.23864V9.17045C24.4318 8.32955 24.2017 7.67614 23.7415 7.21023C23.2869 6.74432 22.5966 6.51136 21.6705 6.51136C20.7102 6.51136 19.9574 6.72159 19.4119 7.14205C18.8665 7.5625 18.483 8.01136 18.2614 8.48864L16.3523 7.80682C16.6932 7.01136 17.1477 6.39205 17.7159 5.94886C18.2898 5.5 18.9148 5.1875 19.5909 5.01136C20.2727 4.82955 20.9432 4.73864 21.6023 4.73864C22.0227 4.73864 22.5057 4.78977 23.0511 4.89204C23.6023 4.98864 24.1335 5.19034 24.6449 5.49716C25.1619 5.80398 25.5909 6.26705 25.9318 6.88636C26.2727 7.50568 26.4432 8.33523 26.4432 9.375V18H24.4318V16.2273H24.3295C24.1932 16.5114 23.9659 16.8153 23.6477 17.1392C23.3295 17.4631 22.9063 17.7386 22.3778 17.9659C21.8494 18.1932 21.2045 18.3068 20.4432 18.3068ZM20.75 16.5C21.5455 16.5 22.2159 16.3438 22.7614 16.0312C23.3125 15.7188 23.7273 15.3153 24.0057 14.821C24.2898 14.3267 24.4318 13.8068 24.4318 13.2614V11.4205C24.3466 11.5227 24.1591 11.6165 23.8693 11.7017C23.5852 11.7812 23.2557 11.8523 22.8807 11.9148C22.5114 11.9716 22.1506 12.0227 21.7983 12.0682C21.4517 12.108 21.1705 12.142 20.9545 12.1705C20.4318 12.2386 19.9432 12.3494 19.4886 12.5028C19.0398 12.6506 18.6761 12.875 18.3977 13.1761C18.125 13.4716 17.9886 13.875 17.9886 14.3864C17.9886 15.0852 18.2472 15.6136 18.7642 15.9716C19.2869 16.3239 19.9489 16.5 20.75 16.5ZM35.0575 18.2727C33.9666 18.2727 33.0036 17.9972 32.1683 17.446C31.3331 16.8892 30.6797 16.1051 30.2081 15.0938C29.7365 14.0767 29.5007 12.875 29.5007 11.4886C29.5007 10.1136 29.7365 8.92045 30.2081 7.90909C30.6797 6.89773 31.3359 6.11648 32.1768 5.56534C33.0178 5.0142 33.9893 4.73864 35.0916 4.73864C35.9439 4.73864 36.6172 4.88068 37.1115 5.16477C37.6115 5.44318 37.9922 5.76136 38.2536 6.11932C38.5206 6.47159 38.728 6.76136 38.8757 6.98864H39.0462V0.545454H41.0575V18H39.1143V15.9886H38.8757C38.728 16.2273 38.5178 16.5284 38.245 16.892C37.9723 17.25 37.5831 17.571 37.0774 17.8551C36.5717 18.1335 35.8984 18.2727 35.0575 18.2727ZM35.3303 16.4659C36.1371 16.4659 36.8189 16.2557 37.3757 15.8352C37.9325 15.4091 38.3558 14.821 38.6456 14.071C38.9354 13.3153 39.0803 12.4432 39.0803 11.4545C39.0803 10.4773 38.9382 9.62216 38.6541 8.8892C38.37 8.15057 37.9496 7.5767 37.3928 7.16761C36.8359 6.75284 36.1484 6.54545 35.3303 6.54545C34.478 6.54545 33.7678 6.7642 33.1996 7.2017C32.6371 7.63352 32.2138 8.22159 31.9297 8.96591C31.6513 9.70455 31.5121 10.5341 31.5121 11.4545C31.5121 12.3864 31.6541 13.233 31.9382 13.9943C32.228 14.75 32.6541 15.3523 33.2166 15.8011C33.7848 16.2443 34.4893 16.4659 35.3303 16.4659ZM47.7053 18H43.7507L49.7763 0.545454H54.532L60.549 18H56.5945L52.2223 4.53409H52.0859L47.7053 18ZM47.4581 11.1392H56.799V14.0199H47.4581V11.1392ZM62.9737 22.9091V4.90909H64.9169V6.98864H65.1555C65.3033 6.76136 65.5078 6.47159 65.7692 6.11932C66.0362 5.76136 66.4169 5.44318 66.9112 5.16477C67.4112 4.88068 68.0874 4.73864 68.9396 4.73864C70.0419 4.73864 71.0135 5.0142 71.8544 5.56534C72.6953 6.11648 73.3516 6.89773 73.8232 7.90909C74.2947 8.92045 74.5305 10.1136 74.5305 11.4886C74.5305 12.875 74.2947 14.0767 73.8232 15.0938C73.3516 16.1051 72.6982 16.8892 71.8629 17.446C71.0277 17.9972 70.0646 18.2727 68.9737 18.2727C68.1328 18.2727 67.4595 18.1335 66.9538 17.8551C66.4482 17.571 66.0589 17.25 65.7862 16.892C65.5135 16.5284 65.3033 16.2273 65.1555 15.9886H64.9851V22.9091H62.9737ZM64.951 11.4545C64.951 12.4432 65.0959 13.3153 65.3857 14.071C65.6754 14.821 66.0987 15.4091 66.6555 15.8352C67.2124 16.2557 67.8942 16.4659 68.701 16.4659C69.5419 16.4659 70.2436 16.2443 70.8061 15.8011C71.3743 15.3523 71.8004 14.75 72.0845 13.9943C72.3743 13.233 72.5192 12.3864 72.5192 11.4545C72.5192 10.5341 72.3771 9.70455 72.093 8.96591C71.8146 8.22159 71.3913 7.63352 70.8232 7.2017C70.2607 6.7642 69.5533 6.54545 68.701 6.54545C67.8828 6.54545 67.1953 6.75284 66.6385 7.16761C66.0817 7.5767 65.6612 8.15057 65.3771 8.8892C65.093 9.62216 64.951 10.4773 64.951 11.4545ZM77.5987 22.9091V4.90909H79.5419V6.98864H79.7805C79.9283 6.76136 80.1328 6.47159 80.3942 6.11932C80.6612 5.76136 81.0419 5.44318 81.5362 5.16477C82.0362 4.88068 82.7124 4.73864 83.5646 4.73864C84.6669 4.73864 85.6385 5.0142 86.4794 5.56534C87.3203 6.11648 87.9766 6.89773 88.4482 7.90909C88.9197 8.92045 89.1555 10.1136 89.1555 11.4886C89.1555 12.875 88.9197 14.0767 88.4482 15.0938C87.9766 16.1051 87.3232 16.8892 86.4879 17.446C85.6527 17.9972 84.6896 18.2727 83.5987 18.2727C82.7578 18.2727 82.0845 18.1335 81.5788 17.8551C81.0732 17.571 80.6839 17.25 80.4112 16.892C80.1385 16.5284 79.9283 16.2273 79.7805 15.9886H79.6101V22.9091H77.5987ZM79.576 11.4545C79.576 12.4432 79.7209 13.3153 80.0107 14.071C80.3004 14.821 80.7237 15.4091 81.2805 15.8352C81.8374 16.2557 82.5192 16.4659 83.326 16.4659C84.1669 16.4659 84.8686 16.2443 85.4311 15.8011C85.9993 15.3523 86.4254 14.75 86.7095 13.9943C86.9993 13.233 87.1442 12.3864 87.1442 11.4545C87.1442 10.5341 87.0021 9.70455 86.718 8.96591C86.4396 8.22159 86.0163 7.63352 85.4482 7.2017C84.8857 6.7642 84.1783 6.54545 83.326 6.54545C82.5078 6.54545 81.8203 6.75284 81.2635 7.16761C80.7067 7.5767 80.2862 8.15057 80.0021 8.8892C79.718 9.62216 79.576 10.4773 79.576 11.4545Z" fill="url(#paint0_linear_230_334)"/>
<defs>
<linearGradient id="paint0_linear_230_334" x1="-1" y1="9.5" x2="91" y2="9.5" gradientUnits="userSpaceOnUse">
<stop stop-color="#FF7B00"/>
<stop offset="1" stop-color="#F6E05E"/>
</linearGradient>
</defs>
</svg>
